<?xml version="1.0" encoding="utf-8"?>
<!-- Generator: Adobe Illustrator 26.0.2, SVG Export Plug-In . SVG Version: 6.00 Build 0)  -->
<svg version="1.1" id="Layer_1" xmlns="http://www.w3.org/2000/svg" xmlns:xlink="http://www.w3.org/1999/xlink" x="0px" y="0px"
	 viewBox="0 0 306 53.7" style="enable-background:new 0 0 306 53.7;" xml:space="preserve">
<style type="text/css">
	.st0{fill:#EF3F35;}
</style>
<g>
	<path class="st0" d="M16.8,9.8h5.7v34h-5.7V9.8z"/>
	<path class="st0" d="M29.6,9.8h5.1l17.2,24.9V9.8h5.5v34h-5.2L35.1,19.1v24.8h-5.5V9.8z"/>
	<path class="st0" d="M65.2,42.7c-0.8-0.7-1.1-1.7-1.1-3V9.8h15.5c2.5,0,4.8,0.5,6.7,1.4s3.4,2.3,4.5,4.1c1.1,1.8,1.6,3.8,1.6,6.1
		v9.9c0,4.1-1.1,7.2-3.2,9.4c-2.1,2.1-5.2,3.2-9.4,3.2H68.2C67,43.9,66,43.5,65.2,42.7z M79.6,38.9c2.3,0,4-0.7,5.2-2
		c1.2-1.3,1.8-3.2,1.8-5.8v-9.5c0-2-0.7-3.6-2-4.9c-1.3-1.2-3.1-1.9-5.2-1.9h-9.7v24H79.6z"/>
	<path class="st0" d="M102.7,42.7c-1.9-1.1-3.3-2.5-4.4-4.5c-1-1.9-1.6-4.2-1.6-6.7v-9.3c0-2.5,0.5-4.8,1.6-6.7
		c1-1.9,2.5-3.4,4.4-4.5c1.9-1.1,4.1-1.6,6.5-1.6h5.2c2.5,0,4.6,0.5,6.5,1.6c1.9,1.1,3.4,2.5,4.4,4.5c1,1.9,1.6,4.2,1.6,6.7v9.3
		c0,2.5-0.5,4.8-1.6,6.7c-1,1.9-2.5,3.4-4.4,4.5c-1.9,1.1-4.1,1.6-6.5,1.6h-5.2C106.8,44.3,104.6,43.7,102.7,42.7z M114.4,39.2
		c2,0,3.6-0.7,4.9-2.2c1.3-1.5,1.9-3.4,1.9-5.7v-8.9c0-2.4-0.6-4.3-1.9-5.7c-1.2-1.5-2.9-2.2-4.9-2.2h-5.1c-2,0-3.7,0.7-4.9,2.2
		c-1.2,1.5-1.9,3.4-1.9,5.7v8.9c0,2.4,0.6,4.3,1.9,5.7c1.2,1.5,2.9,2.2,4.9,2.2H114.4z"/>
	<path class="st0" d="M137.3,42.7c-1.8-1.1-3.2-2.5-4.3-4.5c-1-1.9-1.5-4.2-1.5-6.7v-9.3c0-2.5,0.5-4.8,1.5-6.7
		c1-1.9,2.5-3.4,4.3-4.5c1.9-1.1,4-1.6,6.4-1.6h5.3c2.3,0,4.4,0.5,6.2,1.4s3.2,2.3,4.1,4c1,1.7,1.5,3.7,1.5,6h-5.6
		c0-1.9-0.6-3.5-1.7-4.7c-1.1-1.2-2.6-1.8-4.5-1.8h-5.3c-2,0-3.6,0.7-4.8,2.2c-1.2,1.4-1.8,3.4-1.8,5.8v8.9c0,2.4,0.6,4.3,1.8,5.8
		c1.2,1.4,2.7,2.2,4.7,2.2h5.5c1.9,0,3.4-0.7,4.6-2c1.2-1.3,1.8-3,1.8-5.1v-1.7h-9.4v-5h15v6.6c0,2.4-0.5,4.5-1.5,6.3
		s-2.4,3.3-4.2,4.3c-1.8,1-3.9,1.5-6.3,1.5h-5.5C141.3,44.3,139.1,43.7,137.3,42.7z"/>
	<path class="st0" d="M171.6,42.7c-1.9-1.1-3.3-2.5-4.4-4.5c-1-1.9-1.6-4.2-1.6-6.7v-9.3c0-2.5,0.5-4.8,1.6-6.7
		c1-1.9,2.5-3.4,4.4-4.5c1.9-1.1,4.1-1.6,6.5-1.6h5.2c2.5,0,4.6,0.5,6.5,1.6c1.9,1.1,3.4,2.5,4.4,4.5c1,1.9,1.6,4.2,1.6,6.7v9.3
		c0,2.5-0.5,4.8-1.6,6.7c-1,1.9-2.5,3.4-4.4,4.5c-1.9,1.1-4.1,1.6-6.5,1.6h-5.2C175.7,44.3,173.5,43.7,171.6,42.7z M183.3,39.2
		c2,0,3.6-0.7,4.9-2.2c1.3-1.5,1.9-3.4,1.9-5.7v-8.9c0-2.4-0.6-4.3-1.9-5.7c-1.2-1.5-2.9-2.2-4.9-2.2h-5.1c-2,0-3.7,0.7-4.9,2.2
		c-1.2,1.5-1.9,3.4-1.9,5.7v8.9c0,2.4,0.6,4.3,1.9,5.7c1.2,1.5,2.9,2.2,4.9,2.2H183.3z"/>
	<path class="st0" d="M206.4,42.7c-1.9-1.1-3.3-2.5-4.4-4.5c-1-1.9-1.6-4.2-1.6-6.7v-9.3c0-2.5,0.5-4.8,1.6-6.7
		c1-1.9,2.5-3.4,4.4-4.5c1.9-1.1,4.1-1.6,6.5-1.6h5.2c2.5,0,4.6,0.5,6.5,1.6c1.9,1.1,3.4,2.5,4.4,4.5c1,1.9,1.6,4.2,1.6,6.7v9.3
		c0,2.5-0.5,4.8-1.6,6.7c-1,1.9-2.5,3.4-4.4,4.5c-1.9,1.1-4.1,1.6-6.5,1.6h-5.2C210.5,44.3,208.3,43.7,206.4,42.7z M218.1,39.2
		c2,0,3.6-0.7,4.9-2.2c1.3-1.5,1.9-3.4,1.9-5.7v-8.9c0-2.4-0.6-4.3-1.9-5.7c-1.2-1.5-2.9-2.2-4.9-2.2H213c-2,0-3.7,0.7-4.9,2.2
		c-1.2,1.5-1.9,3.4-1.9,5.7v8.9c0,2.4,0.6,4.3,1.9,5.7c1.2,1.5,2.9,2.2,4.9,2.2H218.1z"/>
	<path class="st0" d="M237.3,42.7c-0.8-0.7-1.1-1.7-1.1-3V9.8h15.5c2.5,0,4.8,0.5,6.7,1.4s3.4,2.3,4.5,4.1c1.1,1.8,1.6,3.8,1.6,6.1
		v9.9c0,4.1-1.1,7.2-3.2,9.4c-2.1,2.1-5.2,3.2-9.4,3.2h-11.5C239.1,43.9,238.1,43.5,237.3,42.7z M251.8,38.9c2.3,0,4-0.7,5.2-2
		c1.2-1.3,1.8-3.2,1.8-5.8v-9.5c0-2-0.7-3.6-2-4.9c-1.3-1.2-3.1-1.9-5.2-1.9h-9.7v24H251.8z"/>
	<path class="st0" d="M271.7,41.3c-1.9-1.9-2.9-4.6-2.9-8h5.6c0,1.8,0.5,3.2,1.4,4.3c1,1.1,2.3,1.6,4,1.6h5.4c1.6,0,2.9-0.3,3.8-1
		c1-0.7,1.5-1.6,1.5-2.7v-2.1c0-0.9-0.3-1.6-1-2.2c-0.7-0.6-1.7-1-2.9-1.2l-8.8-1.5c-2.8-0.5-4.9-1.4-6.3-2.7s-2.2-3.1-2.2-5.2v-2.7
		c0-1.7,0.4-3.1,1.3-4.4c0.9-1.3,2.1-2.2,3.8-2.9c1.6-0.7,3.5-1,5.6-1h5.5c2,0,3.8,0.4,5.3,1.2c1.5,0.8,2.7,2,3.6,3.5
		s1.3,3.3,1.3,5.3h-5.5c0-1.5-0.4-2.7-1.3-3.6c-0.9-0.9-2-1.4-3.3-1.4h-5.5c-1.5,0-2.7,0.3-3.7,1s-1.4,1.6-1.4,2.7v1.8
		c0,0.9,0.3,1.7,1,2.3c0.6,0.6,1.6,1,2.8,1.2l8.8,1.6c2.8,0.5,4.9,1.4,6.4,2.7c1.5,1.3,2.3,3,2.3,5v3.2c0,1.7-0.5,3.1-1.4,4.4
		c-0.9,1.3-2.2,2.3-3.8,3c-1.7,0.7-3.5,1.1-5.7,1.1h-5.6C276.3,44.3,273.6,43.3,271.7,41.3z"/>
</g>
</svg>
